<svg width="63" height="57" viewBox="0 0 63 57" fill="none" xmlns="http://www.w3.org/2000/svg">
<path d="M19.382 51.1702L18.6008 52.5445L19.382 51.1702ZM24.959 54.3732L25.7402 52.9989L24.959 54.3732ZM47.1713 54.5142L46.3617 53.1557L47.1713 54.5142ZM60.0737 46.7321L60.8848 48.089L60.0752 46.7321H60.0737ZM55.9125 42.75L55.5313 41.2142L55.9125 42.75ZM45.675 47.5V49.0833C46.0606 49.083 46.4327 48.9405 46.7208 48.6828L45.675 47.5ZM31.2291 45.6443L32.3426 44.5249L31.2291 45.6443ZM29.4651 41.6306C29.3189 41.4835 29.1452 41.3668 28.9542 41.2871C28.7631 41.2075 28.5582 41.1664 28.3513 41.1663C28.1445 41.1663 27.9396 41.2072 27.7485 41.2867C27.5573 41.3662 27.3836 41.4828 27.2373 41.6298C27.0909 41.7768 26.9748 41.9513 26.8956 42.1434C26.8164 42.3356 26.7755 42.5415 26.7755 42.7494C26.7754 42.9574 26.8161 43.1634 26.8952 43.3555C26.9743 43.5477 27.0902 43.7223 27.2365 43.8694L29.4635 41.6306H29.4651ZM31.0354 35.4081L29.7155 36.271L31.0354 35.4065V35.4081ZM22.05 31.6667L21.9083 30.0897L22.05 31.6667ZM7.875 31.6667H9.45C9.45 31.2467 9.28406 30.844 8.98869 30.5471C8.69332 30.2501 8.29272 30.0833 7.875 30.0833V31.6667ZM1.575 31.6667V30.0833C1.15728 30.0833 0.756677 30.2501 0.461307 30.5471C0.165937 30.844 0 31.2467 0 31.6667H1.575ZM1.575 50.6667H0C0 51.0866 0.165937 51.4893 0.461307 51.7863C0.756677 52.0832 1.15728 52.25 1.575 52.25V50.6667ZM7.875 50.6667V52.25C8.29272 52.25 8.69332 52.0832 8.98869 51.7863C9.28406 51.4893 9.45 51.0866 9.45 50.6667H7.875ZM45.7286 13.4583C45.9971 13.78 46.3818 13.9812 46.798 14.0177C47.2142 14.0543 47.6278 13.9231 47.9477 13.6531C48.2677 13.3831 48.4679 12.9963 48.5042 12.578C48.5405 12.1596 48.41 11.7438 48.1415 11.4222L45.7286 13.4583ZM42.2825 17.9297C42.0569 17.5807 41.7039 17.3351 41.2996 17.2458C40.8953 17.1566 40.4724 17.2309 40.1222 17.4527C39.772 17.6745 39.5227 18.0259 39.4283 18.4311C39.3338 18.8362 39.4018 19.2624 39.6175 19.6175L42.2825 17.9297ZM42.525 22.9583C42.525 23.3783 42.6909 23.781 42.9863 24.0779C43.2817 24.3749 43.6823 24.5417 44.1 24.5417C44.5177 24.5417 44.9183 24.3749 45.2137 24.0779C45.5091 23.781 45.675 23.3783 45.675 22.9583H42.525ZM45.675 8.70833C45.675 8.28841 45.5091 7.88568 45.2137 7.58875C44.9183 7.29182 44.5177 7.125 44.1 7.125C43.6823 7.125 43.2817 7.29182 42.9863 7.58875C42.6909 7.88568 42.525 8.28841 42.525 8.70833H45.675ZM18.6008 52.5445L24.1778 55.7476L25.7402 52.9989L20.1632 49.7943L18.6008 52.5445ZM28.8666 57H43.9299V53.8333H28.8666V57ZM47.9824 55.8727L60.8848 48.089L59.2641 45.3736L46.3617 53.1557L47.9824 55.8711V55.8727ZM63 44.3333C63 43.4372 62.4173 42.7896 62.066 42.4697C61.5846 42.0448 61.0322 41.7087 60.4343 41.477C59.1554 40.964 57.4403 40.7328 55.5298 41.2142L56.2952 44.2858C57.5348 43.9739 58.5758 44.1402 59.2657 44.4188C59.6169 44.5598 59.8406 44.7149 59.9477 44.8115C60.1367 44.9857 59.85 44.8337 59.85 44.3333H63ZM55.5313 41.2142C53.2712 41.781 50.1165 42.9131 47.554 44.3223L49.0644 47.101C51.3545 45.8423 54.2509 44.7988 56.2937 44.2858L55.5313 41.2142ZM47.554 44.3223C46.4751 44.9144 45.4482 45.5842 44.6292 46.3173L46.7208 48.6828C47.2988 48.1666 48.1021 47.6283 49.0644 47.0994L47.5524 44.3223H47.554ZM32.3426 44.5249L29.4635 41.6306L27.2365 43.8694L30.1156 46.7638L32.3442 44.5249H32.3426ZM49.8834 45.7124C49.8834 42.6724 47.8595 40.7091 45.7601 39.5913C43.6637 38.475 41.1705 38 39.375 38V41.1667C40.7295 41.1667 42.703 41.5467 44.2859 42.389C45.8656 43.2298 46.7334 44.3302 46.7334 45.7108H49.8834V45.7124ZM39.375 38H37.7086V41.1667H39.375V38ZM32.3552 34.5436C31.5299 33.269 30.3629 31.9913 28.6193 31.1173C26.8774 30.2432 24.6834 29.8348 21.9083 30.0897L22.1918 33.2437C24.5102 33.0315 26.0946 33.3909 27.2144 33.9514C28.3327 34.5119 29.1107 35.3368 29.7155 36.271L32.3552 34.5436ZM21.9083 30.0897C19.0638 30.3493 17.0037 30.761 14.9956 31.0856C12.643 31.4839 10.2607 31.6783 7.875 31.6667V34.8333C11.1305 34.8333 13.3733 34.5531 15.4949 34.2111C17.6132 33.8707 19.4906 33.4907 22.1933 33.2437L21.9083 30.0897ZM9.45 33.25V31.6667H6.3V33.25H9.45ZM7.875 30.0833H1.575V33.25H7.875V30.0833ZM0 31.6667V50.6667H3.15V31.6667H0ZM1.575 52.25H7.875V49.0833H1.575V52.25ZM7.875 50.6667H11.5668V47.5H7.875V50.6667ZM6.3 33.25V49.0833H9.45V33.25H6.3ZM9.45 50.6667V49.0833H6.3V50.6667H9.45ZM60.8848 48.089C62.1968 47.2973 63 45.8723 63 44.3333H59.85C59.85 44.7608 59.6279 45.1551 59.2641 45.3736L60.8848 48.089ZM30.1156 46.7638C30.8469 47.4991 31.7151 48.0825 32.6707 48.4805C33.6262 48.8785 34.6504 49.0833 35.6848 49.0833V45.9167C35.0641 45.9167 34.4494 45.7939 33.876 45.5551C33.3025 45.3163 32.7815 44.9662 32.3426 44.5249L30.1156 46.7653V46.7638ZM43.9299 57C45.3574 57.0004 46.7582 56.6107 47.9824 55.8727L46.3601 53.1573C45.6259 53.5998 44.7859 53.8334 43.9299 53.8333V57ZM37.7086 38C35.5745 38 33.7491 36.6953 32.3552 34.5436L29.7155 36.271C31.4433 38.9373 34.1224 41.1667 37.7086 41.1667V38ZM24.1778 55.7492C25.6059 56.5692 27.222 57.0003 28.8666 57V53.8333C27.77 53.8335 26.6924 53.5458 25.7402 52.9989L24.1778 55.7476V55.7492ZM20.1616 49.7958C17.5446 48.2921 14.5827 47.5007 11.5684 47.5V50.6667C14.0356 50.6666 16.4602 51.3138 18.6023 52.5445L20.1647 49.7943L20.1616 49.7958ZM56.7 15.8333C56.7 19.1927 55.3725 22.4146 53.0095 24.79C50.6466 27.1655 47.4417 28.5 44.1 28.5V31.6667C52.7987 31.6667 59.85 24.5781 59.85 15.8333H56.7ZM44.1 28.5C40.7583 28.5 37.5534 27.1655 35.1905 24.79C32.8275 22.4146 31.5 19.1927 31.5 15.8333H28.35C28.35 24.5781 35.4013 31.6667 44.1 31.6667V28.5ZM31.5 15.8333C31.5 12.4739 32.8275 9.25211 35.1905 6.87665C37.5534 4.50119 40.7583 3.16667 44.1 3.16667V0C35.4013 0 28.35 7.08858 28.35 15.8333H31.5ZM44.1 3.16667C47.4417 3.16667 50.6466 4.50119 53.0095 6.87665C55.3725 9.25211 56.7 12.4739 56.7 15.8333H59.85C59.85 7.08858 52.7987 0 44.1 0V3.16667ZM48.1415 11.4222C47.6453 10.8284 46.9712 10.3645 46.3129 10.0494C45.6577 9.7375 44.8717 9.5 44.1 9.5V12.6667C44.2733 12.6667 44.5898 12.7316 44.9584 12.9089C45.3238 13.0831 45.5947 13.2984 45.7301 13.4583L48.1399 11.4222H48.1415ZM44.1 9.5C43.2075 9.5021 42.3297 9.7291 41.5469 10.1602C40.5767 10.7192 39.69 11.7547 39.69 13.3475H42.84C42.84 13.1876 42.8762 13.1227 42.8951 13.0942C42.9513 13.0174 43.0247 12.9551 43.1093 12.9121C43.3976 12.7458 43.8181 12.6683 44.1 12.6683V9.5ZM39.69 13.3459C39.69 14.7535 40.4397 15.7098 41.3327 16.2782C42.136 16.7913 43.0951 17.0224 43.796 17.1602L44.404 14.0537C43.7535 13.9254 43.2936 13.7798 43.018 13.604C42.9565 13.5703 42.9028 13.5239 42.8605 13.4678C42.8557 13.461 42.852 13.4536 42.8494 13.4457C42.842 13.413 42.8388 13.3794 42.84 13.3459H39.69ZM43.796 17.1618C44.2921 17.2583 44.867 17.4848 45.2765 17.7745C45.7191 18.0896 45.675 18.2495 45.675 18.1703H48.825C48.825 16.7358 47.88 15.7478 47.0894 15.1858C46.2795 14.6299 45.366 14.2448 44.404 14.0537L43.796 17.1602V17.1618ZM45.675 18.1703C45.675 18.2986 45.6278 18.4585 45.3632 18.6453C45.0734 18.848 44.6119 19 44.1 19V22.1667C45.1631 22.1667 46.2766 21.8658 47.1681 21.2404C48.0832 20.5976 48.825 19.5494 48.825 18.1703H45.675ZM44.1 19C43.2558 19 42.5849 18.4142 42.2825 17.9297L39.6175 19.6175C40.2602 20.6419 41.7942 22.1667 44.1 22.1667V19ZM42.525 20.5833V22.9583H45.675V20.5833H42.525ZM45.675 11.0833V8.70833H42.525V11.0833H45.675ZM45.675 45.9167H35.6848V49.0833H45.675V45.9167Z" fill="white"/>
</svg>
