<svg width="88" height="124" viewBox="0 0 88 124" fill="none" xmlns="http://www.w3.org/2000/svg">
<path d="M25.4 43.4H62.6V37.2H25.4V43.4ZM62.6 43.4C66.1588 43.4 68.8 46.0412 68.8 49.6H75C75 42.6188 69.5812 37.2 62.6 37.2V43.4ZM68.8 49.6V111.6H75V49.6H68.8ZM68.8 111.6C68.8 115.159 66.1588 117.8 62.6 117.8V124C69.5812 124 75 118.581 75 111.6H68.8ZM62.6 117.8H25.4V124H62.6V117.8ZM25.4 117.8C21.8412 117.8 19.2 115.159 19.2 111.6H13C13 118.581 18.4188 124 25.4 124V117.8ZM19.2 111.6V49.6H13V111.6H19.2ZM19.2 49.6C19.2 46.0412 21.8412 43.4 25.4 43.4V37.2C18.4188 37.2 13 42.6188 13 49.6H19.2ZM16.1 111.6H71.9V105.4H16.1V111.6ZM16.1 55.8H71.9V49.6H16.1V55.8ZM28.5 108.5V102.3H22.3V108.5H28.5ZM28.5 102.3C28.5 100.601 29.9012 99.2 31.6 99.2V93C26.4788 93 22.3 97.1788 22.3 102.3H28.5ZM31.6 99.2H56.4V93H31.6V99.2ZM56.4 99.2C58.0988 99.2 59.5 100.601 59.5 102.3H65.7C65.7 97.1788 61.5212 93 56.4 93V99.2ZM59.5 102.3V108.5H65.7V102.3H59.5ZM56.4 80.6H31.6V86.8H56.4V80.6ZM31.6 80.6C31.4791 80.6 31.4357 80.5814 31.445 80.5845C31.5195 80.6229 31.5802 80.6836 31.6186 80.7581C31.6186 80.7643 31.6 80.7209 31.6 80.6H25.4C25.4 82.2337 25.958 83.8364 27.1608 85.0392C28.3636 86.242 29.9663 86.8 31.6 86.8V80.6ZM31.6 80.6V68.2H25.4V80.6H31.6ZM31.6 68.2C31.6 68.0791 31.6186 68.0357 31.6155 68.045C31.5771 68.1195 31.5164 68.1802 31.4419 68.2186C31.4357 68.2186 31.4791 68.2 31.6 68.2V62C29.9663 62 28.3636 62.558 27.1608 63.7608C25.958 64.9636 25.4 66.5663 25.4 68.2H31.6ZM31.6 68.2H56.4V62H31.6V68.2ZM56.4 68.2C56.5209 68.2 56.5643 68.2186 56.555 68.2155C56.4805 68.1771 56.4198 68.1164 56.3814 68.0419C56.3814 68.0357 56.4 68.0791 56.4 68.2H62.6C62.6 66.5663 62.042 64.9636 60.8392 63.7608C59.6364 62.558 58.0337 62 56.4 62V68.2ZM56.4 68.2V80.6H62.6V68.2H56.4ZM56.4 80.6C56.4 80.7209 56.3814 80.7643 56.3845 80.755C56.4229 80.6805 56.4836 80.6198 56.5581 80.5814C56.5643 80.5814 56.5209 80.6 56.4 80.6V86.8C58.0337 86.8 59.6364 86.242 60.8392 85.0392C62.042 83.8364 62.6 82.2337 62.6 80.6H56.4ZM16.1 77.5H9.89998V83.7H16.1V77.5ZM9.89998 77.5C8.20118 77.5 6.79998 76.0988 6.79998 74.4H0.599976C0.599976 79.5212 4.77878 83.7 9.89998 83.7V77.5ZM6.79998 74.4V21.7H0.599976V74.4H6.79998ZM3.69998 24.8H84.3V18.6H3.69998V24.8ZM81.2 21.7V74.4H87.4V21.7H81.2ZM81.2 74.4C81.2 76.0988 79.7988 77.5 78.1 77.5V83.7C83.2212 83.7 87.4 79.5212 87.4 74.4H81.2ZM78.1 77.5H71.9V83.7H78.1V77.5ZM87.4 21.7V9.3H81.2V21.7H87.4ZM87.4 9.3C87.4 4.1788 83.2212 0 78.1 0V6.2C79.7988 6.2 81.2 7.6012 81.2 9.3H87.4ZM78.1 0H9.89998V6.2H78.1V0ZM9.89998 0C4.77878 0 0.599976 4.1788 0.599976 9.3H6.79998C6.79998 7.6012 8.20118 6.2 9.89998 6.2V0ZM0.599976 9.3V21.7H6.79998V9.3H0.599976Z" fill="white"/>
</svg>
