<svg width="123" height="100" viewBox="0 0 123 100" fill="none" xmlns="http://www.w3.org/2000/svg">
<path fill-rule="evenodd" clip-rule="evenodd" d="M3.25 14.8571C3.25 12.3879 3.8415 10.8256 4.77425 9.86943C5.69887 8.91986 7.23775 8.28571 9.75 8.28571H55.25C57.7623 8.28571 59.2995 8.91986 60.2274 9.86943C61.1585 10.8256 61.75 12.3879 61.75 14.8571V41.1429C61.75 43.4429 60.9749 45.0036 59.7724 46.0221C58.5276 47.0785 56.6264 47.7143 54.1125 47.7143H9.75C7.23775 47.7143 5.7005 47.0801 4.77263 46.1306C3.84313 45.1744 3.25 43.6121 3.25 41.1429V14.8571ZM9.75 5C6.73725 5 4.21363 5.76229 2.45863 7.56286C0.7085 9.36179 0 11.9082 0 14.8571V41.1429C0 44.0934 0.7085 46.6399 2.45863 48.4371C4.21363 50.2361 6.73725 51 9.75 51H54.1125C57.1236 51 59.8536 50.2394 61.8589 48.5423C63.9064 46.8107 65 44.2659 65 41.1429V14.8571C65 11.9066 64.2931 9.36014 62.5414 7.56286C60.7864 5.76393 58.2627 5 55.25 5H9.75ZM9.77275 23.6284L9.7955 23.5676C9.8884 23.3655 10.0419 23.1983 10.2342 23.0895L10.2749 23.0714H13V26.3571H9.75V23.7286C9.75259 23.6942 9.76026 23.6604 9.77275 23.6284ZM16.25 26.3571V23.0714H18.85C18.8711 23.0714 18.9962 23.0911 19.1539 23.2587C19.2176 23.3253 19.2703 23.4019 19.3099 23.4854C19.3326 23.5364 19.3359 23.5676 19.3375 23.5709V26.3571H16.25ZM9.75 29.6429H19.3375V32.3881L19.3537 32.4965C19.3512 32.513 19.3463 32.5291 19.3391 32.5441C19.2717 32.7013 19.1545 32.8313 19.006 32.9138L18.9735 32.9286H10.2733L10.2245 32.9072C10.1283 32.8554 10.0407 32.7889 9.9645 32.7101C9.88818 32.6337 9.82355 32.5462 9.77275 32.4505L9.75 32.4012V29.6429ZM10.2375 19.7857C9.16013 19.7857 8.23388 20.3821 7.63913 21.0146C7.0265 21.6635 6.5 22.6246 6.5 23.7286V32.4357C6.5 33.0321 6.67875 33.5808 6.93388 34.0523C7.13133 34.4125 7.37745 34.7431 7.66513 35.0347C8.25013 35.6261 9.16825 36.2143 10.2375 36.2143H19.0125C20.0882 36.2143 21.0242 35.6196 21.619 34.9542C22.0477 34.4814 22.3537 33.9085 22.5095 33.2867C22.5924 32.9384 22.6265 32.5639 22.5875 32.1745V23.5643C22.5875 22.5572 22.113 21.6372 21.5101 20.9949C20.8959 20.341 19.9664 19.7857 18.85 19.7857H10.2375ZM35.75 28C35.75 28.4357 35.5788 28.8536 35.274 29.1617C34.9693 29.4698 34.556 29.6429 34.125 29.6429C33.694 29.6429 33.2807 29.4698 32.976 29.1617C32.6712 28.8536 32.5 28.4357 32.5 28C32.5 27.5643 32.6712 27.1464 32.976 26.8383C33.2807 26.5302 33.694 26.3571 34.125 26.3571C34.556 26.3571 34.9693 26.5302 35.274 26.8383C35.5788 27.1464 35.75 27.5643 35.75 28ZM42.25 28C42.25 28.4357 42.0788 28.8536 41.774 29.1617C41.4693 29.4698 41.056 29.6429 40.625 29.6429C40.194 29.6429 39.7807 29.4698 39.476 29.1617C39.1712 28.8536 39 28.4357 39 28C39 27.5643 39.1712 27.1464 39.476 26.8383C39.7807 26.5302 40.194 26.3571 40.625 26.3571C41.056 26.3571 41.4693 26.5302 41.774 26.8383C42.0788 27.1464 42.25 27.5643 42.25 28ZM47.125 29.6429C47.556 29.6429 47.9693 29.4698 48.274 29.1617C48.5788 28.8536 48.75 28.4357 48.75 28C48.75 27.5643 48.5788 27.1464 48.274 26.8383C47.9693 26.5302 47.556 26.3571 47.125 26.3571C46.694 26.3571 46.2807 26.5302 45.976 26.8383C45.6712 27.1464 45.5 27.5643 45.5 28C45.5 28.4357 45.6712 28.8536 45.976 29.1617C46.2807 29.4698 46.694 29.6429 47.125 29.6429ZM55.25 28C55.25 28.4357 55.0788 28.8536 54.774 29.1617C54.4693 29.4698 54.056 29.6429 53.625 29.6429C53.194 29.6429 52.7807 29.4698 52.476 29.1617C52.1712 28.8536 52 28.4357 52 28C52 27.5643 52.1712 27.1464 52.476 26.8383C52.7807 26.5302 53.194 26.3571 53.625 26.3571C54.056 26.3571 54.4693 26.5302 54.774 26.8383C55.0788 27.1464 55.25 27.5643 55.25 28Z" fill="white"/>
<g clip-path="url(#clip0_55_2253)">
<rect x="42" y="42" width="10" height="12" fill="#006AFF"/>
<path d="M79.2519 89H81.5019C81.5019 88.4033 81.2649 87.831 80.8429 87.409C80.421 86.9871 79.8487 86.75 79.2519 86.75V89ZM36.5019 89V86.75C35.9052 86.75 35.3329 86.9871 34.9109 87.409C34.489 87.831 34.2519 88.4033 34.2519 89H36.5019ZM36.5019 102.5H34.2519C34.2519 103.097 34.489 103.669 34.9109 104.091C35.3329 104.513 35.9052 104.75 36.5019 104.75V102.5ZM79.2519 102.5V104.75C79.8487 104.75 80.421 104.513 80.8429 104.091C81.2649 103.669 81.5019 103.097 81.5019 102.5H79.2519ZM74.0882 87.6365C73.8995 87.8705 73.7596 88.14 73.6769 88.429C73.5941 88.718 73.57 89.0207 73.6062 89.3191C73.6423 89.6175 73.7379 89.9057 73.8873 90.1666C74.0366 90.4275 74.2368 90.6558 74.4758 90.8381C74.7149 91.0203 74.9881 91.1528 75.2793 91.2277C75.5704 91.3026 75.8736 91.3184 76.1709 91.2742C76.4683 91.2299 76.7538 91.1265 77.0105 90.9701C77.2672 90.8137 77.49 90.6074 77.6657 90.3635L74.0882 87.6365ZM69.1269 59.75C69.1269 60.3467 69.364 60.919 69.7859 61.341C70.2079 61.7629 70.7802 62 71.3769 62C71.9737 62 72.546 61.7629 72.9679 61.341C73.3899 60.919 73.6269 60.3467 73.6269 59.75H69.1269ZM69.1269 66.5C69.1269 67.0967 69.364 67.669 69.7859 68.091C70.2079 68.5129 70.7802 68.75 71.3769 68.75C71.9737 68.75 72.546 68.5129 72.9679 68.091C73.3899 67.669 73.6269 67.0967 73.6269 66.5H69.1269ZM60.1269 65.375C60.1269 65.9717 60.364 66.544 60.7859 66.966C61.2079 67.3879 61.7802 67.625 62.3769 67.625C62.9737 67.625 63.546 67.3879 63.9679 66.966C64.3899 66.544 64.6269 65.9717 64.6269 65.375H60.1269ZM53.3769 64.25L51.1382 64.475C51.1958 65.0494 51.4721 65.5797 51.9097 65.9561C52.3474 66.3325 52.913 66.5264 53.4896 66.4975C54.0661 66.4686 54.6095 66.2192 55.0074 65.8008C55.4052 65.3825 55.627 64.8273 55.6269 64.25H53.3769ZM51.1269 41.75H48.8769C48.8769 41.8242 48.8814 41.8985 48.8882 41.975L51.1269 41.75ZM42.1269 41.75L44.3769 41.7995V41.75H42.1269ZM42.1269 58.625L39.8769 58.6993L39.8814 58.7487L42.1269 58.625ZM42.2664 72.9035C42.3641 73.1866 42.5174 73.4473 42.7171 73.6703C42.9169 73.8934 43.1592 74.0743 43.4298 74.2026C43.7004 74.3308 43.9939 74.4037 44.293 74.417C44.5922 74.4304 44.891 74.3839 45.1719 74.2802C45.4529 74.1766 45.7103 74.0179 45.9291 73.8135C46.148 73.6091 46.3238 73.3631 46.4463 73.0899C46.5688 72.8166 46.6356 72.5217 46.6426 72.2223C46.6497 71.923 46.5969 71.6252 46.4874 71.3465L42.2664 72.9035ZM39.4269 87.875L37.5144 89.0608L37.5549 89.1237L39.4269 87.875ZM34.4769 65.825L36.7112 66.0882C36.7216 66.0009 36.7269 65.913 36.7269 65.825H34.4769ZM34.7019 64.25L32.4789 63.899C32.4608 64.0151 32.4517 64.1325 32.4519 64.25H34.7019ZM79.2519 86.75H36.5019V91.25H79.2519V86.75ZM34.2519 89V102.5H38.7519V89H34.2519ZM36.5019 104.75H79.2519V100.25H36.5019V104.75ZM81.5019 102.5V89H77.0019V102.5H81.5019ZM77.6657 90.3635C78.8627 88.793 79.6794 86.4237 80.2802 84.0365C80.9012 81.566 81.3647 78.7558 81.7089 76.067C82.3952 70.6985 82.6269 65.5955 82.6269 64.25H78.1269C78.1269 65.3795 77.9109 70.289 77.2449 75.4955C76.9142 78.0942 76.4777 80.711 75.9174 82.9385C75.3347 85.2492 74.6912 86.8445 74.0882 87.6365L77.6657 90.3635ZM82.6269 64.25V59.75H78.1269V64.25H82.6269ZM82.6269 59.75C82.6269 56.033 79.5939 53 75.8769 53V57.5C77.1099 57.5 78.1269 58.517 78.1269 59.75H82.6269ZM75.8769 53C72.1599 53 69.1269 56.033 69.1269 59.75H73.6269C73.6269 58.517 74.6439 57.5 75.8769 57.5V53ZM73.6269 59.75V58.625H69.1269V59.75H73.6269ZM73.6269 66.5V58.625H69.1269V66.5H73.6269ZM73.6269 58.625C73.6269 54.908 70.5939 51.875 66.8769 51.875V56.375C68.1099 56.375 69.1269 57.392 69.1269 58.625H73.6269ZM66.8769 51.875C63.1599 51.875 60.1269 54.908 60.1269 58.625H64.6269C64.6269 57.392 65.6439 56.375 66.8769 56.375V51.875ZM60.1269 58.625V65.375H64.6269V58.625H60.1269ZM64.6269 65.375V57.5H60.1269V65.375H64.6269ZM64.6269 57.5C64.6269 53.783 61.5939 50.75 57.8769 50.75V55.25C59.1099 55.25 60.1269 56.267 60.1269 57.5H64.6269ZM57.8769 50.75C54.1599 50.75 51.1269 53.783 51.1269 57.5H55.6269C55.6269 56.267 56.6439 55.25 57.8769 55.25V50.75ZM51.1269 57.5V64.25H55.6269V57.5H51.1269ZM55.6157 64.025L53.3657 41.525L48.8882 41.975L51.1382 64.475L55.6157 64.025ZM53.3769 41.75C53.3769 38.033 50.3439 35 46.6269 35V39.5C47.8599 39.5 48.8769 40.517 48.8769 41.75H53.3769ZM46.6269 35C42.9099 35 39.8769 38.033 39.8769 41.75H44.3769C44.3769 40.517 45.3939 39.5 46.6269 39.5V35ZM42.1269 41.75L39.8769 41.7005V41.822C39.8661 42.3492 39.8563 42.8765 39.8477 43.4037C39.8274 44.4612 39.8072 45.9462 39.7937 47.6405C39.7644 51.0222 39.7644 55.2792 39.8792 58.7015L44.3747 58.553C44.2772 54.9284 44.2495 51.3022 44.2914 47.6765C44.3072 45.8659 44.3327 44.0554 44.3679 42.245L44.3747 41.9142V41.831V41.8085V41.804L42.1269 41.75ZM39.8814 58.7487C40.1064 62.8032 40.5632 68.2797 42.2664 72.9012L46.4874 71.3488C45.0407 67.4203 44.5974 62.5468 44.3724 58.5013L39.8814 58.7487ZM40.1019 89L42.1134 87.9943V87.9897L42.1112 87.9853L42.1044 87.9762L42.0909 87.947C42.0277 87.8202 41.9602 87.6957 41.8884 87.5735C41.7027 87.2519 41.5061 86.9367 41.2989 86.6285L37.5549 89.1237C37.7394 89.4013 37.9121 89.6866 38.0724 89.9788L38.0927 90.0103L38.0904 90.008L40.1019 89ZM41.3394 86.6892C37.5527 80.5895 35.8719 73.223 36.7112 66.0882L32.2427 65.5618C31.2819 73.727 33.2012 82.1105 37.5144 89.0608L41.3394 86.6892ZM36.7269 65.825C36.7269 65.897 36.7179 65.9285 36.7269 65.8857C36.7359 65.8272 36.7494 65.7755 36.7854 65.609C36.8507 65.321 36.9519 64.844 36.9519 64.25H32.4519C32.4469 64.3793 32.4273 64.5076 32.3934 64.6325C32.3732 64.7225 32.3304 64.9093 32.2989 65.0825C32.2526 65.3273 32.2285 65.5758 32.2269 65.825H36.7269ZM36.9249 64.601C37.0487 63.8068 37.8047 63.0755 39.4719 62.5378C40.4187 62.2387 41.399 62.058 42.3902 62H42.4262L42.3519 59.75L42.2777 57.5H42.2642L42.2372 57.5023C42.1185 57.5073 42 57.5148 41.8817 57.5247C40.593 57.6195 39.3198 57.8649 38.0882 58.256C36.0992 58.8995 33.0302 60.416 32.4789 63.899L36.9249 64.601Z" fill="white"/>
</g>
<defs>
<clipPath id="clip0_55_2253">
<rect width="100" height="100" fill="white" transform="translate(23)"/>
</clipPath>
</defs>
</svg>
