<svg width="68" height="35" viewBox="0 0 68 35" fill="none" xmlns="http://www.w3.org/2000/svg">
<path fill-rule="evenodd" clip-rule="evenodd" d="M21 7C20.7348 7 20.4804 7.10536 20.2929 7.29289C20.1054 7.48043 20 7.73478 20 8C20 8.26522 20.1054 8.51957 20.2929 8.70711C20.4804 8.89464 20.7348 9 21 9H22.737C22.844 9 22.99 9.01 23.189 9.501C23.285 9.738 23.361 10.019 23.433 10.332L23.499 10.632V10.635C23.546 10.849 23.596 11.079 23.644 11.258C23.781 11.771 24.474 14.179 25.129 16.438L26.015 19.495L26.21 20.169C26.1499 20.2266 26.0922 20.2867 26.037 20.349C25.585 20.866 25.211 21.655 25.211 22.786C25.21 24.624 26.89 26 28.526 26H40C39.4696 26 38.9609 26.2107 38.5858 26.5858C38.2107 26.9609 38 27.4696 38 28C38 28.5304 38.2107 29.0391 38.5858 29.4142C38.9609 29.7893 39.4696 30 40 30C40.5304 30 41.0391 29.7893 41.4142 29.4142C41.7893 29.0391 42 28.5304 42 28C42 27.4696 41.7893 26.9609 41.4142 26.5858C41.0391 26.2107 40.5304 26 40 26H43C43.2652 26 43.5196 25.8946 43.7071 25.7071C43.8946 25.5196 44 25.2652 44 25C44 24.7348 43.8946 24.4804 43.7071 24.2929C43.5196 24.1054 43.2652 24 43 24H28.526C27.846 24 27.211 23.376 27.211 22.786C27.211 22.131 27.415 21.813 27.541 21.668C27.5762 21.6279 27.6151 21.5911 27.657 21.558L43.052 20.748C43.3136 20.7299 43.5577 20.6097 43.7315 20.4134C43.9054 20.217 43.9952 19.9603 43.9815 19.6984C43.9679 19.4365 43.8519 19.1904 43.6586 19.0132C43.4653 18.836 43.2101 18.7419 42.948 18.751L42.683 18.765L43.986 11.169C44.0106 11.0254 44.0036 10.8782 43.9654 10.7377C43.9272 10.5971 43.8587 10.4666 43.7648 10.3553C43.6709 10.2439 43.5538 10.1544 43.4217 10.0931C43.2896 10.0317 43.1457 9.99994 43 10H25.408L25.383 9.886C25.3 9.49858 25.1863 9.11838 25.043 8.749C24.732 7.989 24.077 7 22.736 7H21ZM26.57 14.224L25.93 12H41.814L40.636 18.873L28.108 19.531L27.935 18.938C27.4795 17.3669 27.0249 15.7956 26.571 14.224H26.57ZM28 30C28.5304 30 29.0391 29.7893 29.4142 29.4142C29.7893 29.0391 30 28.5304 30 28C30 27.4696 29.7893 26.9609 29.4142 26.5858C29.0391 26.2107 28.5304 26 28 26C27.4696 26 26.9609 26.2107 26.5858 26.5858C26.2107 26.9609 26 27.4696 26 28C26 28.5304 26.2107 29.0391 26.5858 29.4142C26.9609 29.7893 27.4696 30 28 30Z" fill="#006AFF" fill-opacity="0.5"/>
<path d="M52.1868 10.3077L64.0549 2" stroke="#006AFF" stroke-opacity="0.5" stroke-width="3"/>
<path d="M52.5824 17.8242H67.6154" stroke="#006AFF" stroke-opacity="0.5" stroke-width="3"/>
<path d="M51 25.3406L65.6373 32.8571" stroke="#006AFF" stroke-opacity="0.5" stroke-width="3"/>
<path d="M15.4285 10.3077L3.56037 2" stroke="#006AFF" stroke-opacity="0.5" stroke-width="3"/>
<path d="M15.0329 17.8242H-6.93202e-05" stroke="#006AFF" stroke-opacity="0.5" stroke-width="3"/>
<path d="M16.6153 25.3406L1.97796 32.8571" stroke="#006AFF" stroke-opacity="0.5" stroke-width="3"/>
</svg>
