<svg width="42" height="42" viewBox="0 0 42 42" fill="none" xmlns="http://www.w3.org/2000/svg">
<path d="M17.5 3.60003L16.52 3.40403C16.515 3.42403 16.512 3.44503 16.509 3.46603L17.5 3.60003ZM17 7.30003L17.342 8.24003C17.5134 8.17765 17.6645 8.06957 17.7789 7.92751C17.8933 7.78544 17.9666 7.61479 17.991 7.43403L17 7.30003ZM13.6 8.70003L12.979 9.48303C13.128 9.60118 13.3077 9.67437 13.4968 9.69403C13.686 9.71369 13.8769 9.679 14.047 9.59403L13.6 8.70003ZM10.7 6.40003L11.321 5.61603C11.2669 5.57349 11.2086 5.53663 11.147 5.50603L10.7 6.40003ZM8.2 6.70003L7.493 5.99303C7.47925 6.00697 7.46591 6.02131 7.453 6.03603L8.2 6.70003ZM6.6 8.50003L7.307 9.20703C7.32075 9.19309 7.33409 9.17875 7.347 9.16403L6.6 8.50003ZM6.4 10.9L5.552 11.43C5.562 11.445 5.571 11.46 5.581 11.473L6.4 10.9ZM8.5 13.9L9.357 14.414C9.45644 14.2484 9.50578 14.0575 9.49903 13.8644C9.49229 13.6713 9.42976 13.4843 9.319 13.326L8.5 13.9ZM7.1 17.3L7.29 18.282C7.46423 18.2483 7.62635 18.1689 7.75974 18.0519C7.89312 17.9348 7.99296 17.7844 8.049 17.616L7.1 17.3ZM3.5 18L3.61 18.994C3.63682 18.9911 3.66351 18.9871 3.69 18.982L3.5 18ZM3.6 24.1L3.764 23.114C3.74278 23.1103 3.72143 23.1073 3.7 23.105L3.6 24.1ZM7.2 24.7L8.14 24.358C8.07931 24.1916 7.97547 24.0442 7.83912 23.9311C7.70277 23.8179 7.5388 23.743 7.364 23.714L7.2 24.7ZM8.6 28.1L9.397 28.704C9.52014 28.5415 9.59064 28.3452 9.59904 28.1414C9.60744 27.9376 9.55334 27.7362 9.444 27.564L8.6 28.1ZM6.4 31L5.603 30.396C5.58489 30.4199 5.56787 30.4446 5.552 30.47L6.4 31ZM6.6 33.4L7.327 32.713C7.30295 32.6877 7.27758 32.6637 7.251 32.641L6.6 33.4ZM8.3 35.2L7.573 35.887C7.57957 35.8938 7.58624 35.9005 7.593 35.907L8.3 35.2ZM10.8 35.3L10.209 34.494L10.2 34.5L10.8 35.3ZM13.8 33.1L14.314 32.242C14.1451 32.141 13.9502 32.0921 13.7537 32.1013C13.5571 32.1106 13.3676 32.1776 13.209 32.294L13.8 33.1ZM17.2 34.5L18.187 34.34C18.1572 34.1559 18.0765 33.9838 17.9541 33.8432C17.8316 33.7025 17.6722 33.5989 17.494 33.544L17.2 34.5ZM17.8 38.2L18.794 38.09C18.7921 38.0733 18.7897 38.0566 18.787 38.04L17.8 38.2ZM24.1 38.2L25.08 38.396C25.0826 38.3841 25.0849 38.3721 25.087 38.36L24.1 38.2ZM24.7 34.5L24.358 33.56C24.1908 33.6209 24.0429 33.7253 23.9295 33.8624C23.8162 33.9995 23.7414 34.1644 23.713 34.34L24.7 34.5ZM28.1 33.1L28.691 32.294C28.5428 32.1854 28.3675 32.1197 28.1844 32.1042C28.0013 32.0887 27.8174 32.1239 27.653 32.206L28.1 33.1ZM31.1 35.3L31.7 34.5L31.691 34.494L31.1 35.3ZM33.6 35.2L34.307 35.907C34.3138 35.9005 34.3204 35.8938 34.327 35.887L33.6 35.2ZM35.3 33.4L34.593 32.693C34.5862 32.6996 34.5796 32.7063 34.573 32.713L35.3 33.4ZM35.5 31L36.348 30.47C36.3387 30.4555 36.329 30.4411 36.319 30.427L35.5 31ZM33.4 28L32.543 27.485C32.4436 27.6507 32.3942 27.8416 32.401 28.0347C32.4077 28.2277 32.4702 28.4147 32.581 28.573L33.4 28ZM34.8 24.6L34.636 23.614C34.4566 23.6438 34.2887 23.7219 34.1504 23.8399C34.0121 23.958 33.9086 24.1115 33.851 24.284L34.8 24.6ZM38.4 24L38.29 23.006C38.2719 23.0082 38.2539 23.0109 38.236 23.014L38.4 24ZM38.4 17.7L38.236 18.686C38.2576 18.6898 38.2792 18.6928 38.301 18.695L38.4 17.7ZM34.8 17.1L33.86 17.442C33.9207 17.6085 34.0245 17.7559 34.1609 17.869C34.2972 17.9822 34.4612 18.0571 34.636 18.086L34.8 17.1ZM33.4 13.7L32.532 13.204C32.4416 13.3621 32.396 13.5418 32.4002 13.7239C32.4045 13.9059 32.4583 14.0834 32.556 14.237L33.4 13.7ZM35 10.9L34.152 10.37C34.1451 10.3812 34.1384 10.3926 34.132 10.404L35 10.9ZM34.8 8.50003L34.093 9.20703C34.111 9.22503 34.13 9.24303 34.149 9.25903L34.8 8.50003ZM33 6.70003L33.707 5.99303L33 6.70003ZM30.5 6.60003L31.091 7.40603L31.1 7.40003L30.5 6.60003ZM27.5 8.80003L26.985 9.65703C27.1538 9.75854 27.3488 9.80795 27.5456 9.79906C27.7423 9.79016 27.9321 9.72336 28.091 9.60703L27.5 8.80003ZM24.1 7.40003L23.113 7.56003C23.1428 7.74413 23.2235 7.91624 23.3459 8.0569C23.4684 8.19756 23.6278 8.30117 23.806 8.35603L24.1 7.40003ZM23.5 3.70003L22.504 3.61003C22.496 3.69303 22.499 3.77703 22.513 3.86003L23.5 3.70003ZM22 1.00003H19.4V3.00003H22V1.00003ZM19.4 1.00003C18.029 1.00003 16.814 1.93103 16.52 3.40403L18.48 3.79603C18.586 3.26903 18.971 3.00003 19.4 3.00003V1.00003ZM16.509 3.46603L16.009 7.16603L17.991 7.43403L18.491 3.73403L16.509 3.46603ZM16.659 6.36003C15.562 6.75903 14.411 7.17703 13.153 7.80603L14.047 9.59403C15.189 9.02403 16.238 8.64103 17.342 8.24003L16.658 6.36003H16.659ZM14.22 7.91603L11.32 5.61603L10.08 7.18403L12.98 9.48403L14.222 7.91703L14.22 7.91603ZM11.146 5.50603C10.77 5.31603 10.205 5.20003 9.6 5.20003V7.20003C9.785 7.20003 9.944 7.21903 10.066 7.24303C10.197 7.26903 10.256 7.29603 10.253 7.29403L11.147 5.50603H11.146ZM9.6 5.20003C8.973 5.20003 8.16 5.32603 7.493 5.99303L8.907 7.40703C9.04 7.27403 9.227 7.20003 9.6 7.20003V5.20003ZM7.453 6.03603L5.853 7.83603L7.347 9.16403L8.947 7.36403L7.453 6.03603ZM5.893 7.79303C4.933 8.75303 4.829 10.273 5.552 11.43L7.248 10.37C6.971 9.92803 7.066 9.44803 7.308 9.20703L5.892 7.79303H5.893ZM5.581 11.473L7.681 14.473L9.319 13.326L7.219 10.326L5.581 11.473ZM7.643 13.385C6.976 14.497 6.543 15.808 6.151 16.984L8.049 17.616C8.457 16.392 8.824 15.303 9.357 14.415L7.643 13.385ZM6.909 16.318L3.309 17.018L3.691 18.982L7.291 18.282L6.909 16.318ZM3.389 17.006C1.964 17.165 1 18.311 1 19.7H3C3 19.29 3.237 19.035 3.61 18.994L3.39 17.006H3.389ZM1 19.7V22.2H3V19.7H1ZM1 22.2C1 23.484 1.87 24.932 3.5 25.095L3.7 23.105C3.33 23.068 3 22.716 3 22.2H1ZM3.436 25.086L7.036 25.686L7.364 23.714L3.764 23.114L3.436 25.086ZM6.26 25.042C6.615 26.018 6.978 27.414 7.756 28.637L9.444 27.563C8.822 26.586 8.584 25.583 8.14 24.358L6.26 25.042ZM7.803 27.496L5.603 30.396L7.197 31.604L9.397 28.704L7.803 27.496ZM5.552 30.47C4.882 31.543 4.756 33.137 5.949 34.16L7.251 32.64C7.18911 32.5877 7.13901 32.5229 7.10402 32.4498C7.06902 32.3767 7.04993 32.297 7.048 32.216C7.037 32.024 7.094 31.777 7.248 31.53L5.552 30.47ZM5.873 34.087L7.573 35.887L9.027 34.513L7.327 32.713L5.873 34.087ZM7.593 35.907C8.26 36.574 9.073 36.7 9.7 36.7V34.7C9.327 34.7 9.14 34.626 9.007 34.493L7.593 35.907ZM9.7 36.7C10.345 36.7 10.852 36.511 11.4 36.1L10.2 34.5C9.948 34.689 9.855 34.7 9.7 34.7V36.7ZM11.391 36.106L14.391 33.906L13.209 32.294L10.209 34.494L11.391 36.106ZM13.286 33.958C14.392 34.622 15.586 35.05 16.906 35.456L17.494 33.544C16.214 33.15 15.208 32.778 14.314 32.243L13.286 33.958ZM16.213 34.66L16.813 38.36L18.787 38.04L18.187 34.34L16.213 34.66ZM16.806 38.31C16.967 39.76 18.235 40.8 19.7 40.8V38.8C19.165 38.8 18.833 38.44 18.794 38.09L16.806 38.31ZM19.7 40.8H22.2V38.8H19.7V40.8ZM22.2 40.8C23.572 40.8 24.786 39.869 25.08 38.396L23.12 38.004C23.014 38.531 22.628 38.8 22.2 38.8V40.8ZM25.087 38.36L25.687 34.66L23.713 34.34L23.113 38.04L25.087 38.36ZM25.042 35.44C26.138 35.041 27.289 34.624 28.547 33.994L27.653 32.206C26.511 32.776 25.462 33.159 24.358 33.56L25.042 35.44ZM27.509 33.906L30.509 36.106L31.691 34.494L28.691 32.294L27.509 33.906ZM30.5 36.1C31.048 36.511 31.555 36.7 32.2 36.7V34.7C32.045 34.7 31.952 34.689 31.7 34.5L30.5 36.1ZM32.2 36.7C32.827 36.7 33.64 36.574 34.307 35.907L32.893 34.493C32.76 34.626 32.573 34.7 32.2 34.7V36.7ZM34.327 35.887L36.027 34.087L34.573 32.713L32.873 34.513L34.327 35.887ZM36.007 34.107C36.967 33.147 37.072 31.627 36.348 30.47L34.652 31.53C34.928 31.972 34.833 32.452 34.592 32.693L36.007 34.107ZM36.319 30.427L34.219 27.427L32.581 28.573L34.681 31.573L36.319 30.427ZM34.257 28.515C34.925 27.403 35.357 26.092 35.749 24.916L33.851 24.284C33.443 25.508 33.075 26.597 32.543 27.485L34.258 28.515H34.257ZM34.964 25.586L38.564 24.986L38.236 23.014L34.636 23.614L34.964 25.586ZM38.51 24.994C39.96 24.833 41 23.565 41 22.1H39C39 22.635 38.64 22.967 38.29 23.006L38.51 24.994ZM41 22.1V19.6H39V22.1H41ZM41 19.6C41 18.316 40.13 16.868 38.5 16.705L38.3 18.695C38.67 18.732 39 19.084 39 19.6H41ZM38.564 16.714L34.964 16.114L34.636 18.086L38.236 18.686L38.564 16.714ZM35.74 16.758C35.385 15.782 35.022 14.386 34.244 13.163L32.556 14.237C33.178 15.214 33.416 16.217 33.86 17.442L35.74 16.758ZM34.268 14.196L35.868 11.396L34.132 10.404L32.532 13.204L34.268 14.196ZM35.848 11.43C36.518 10.357 36.644 8.76303 35.451 7.74003L34.149 9.26003C34.2109 9.31233 34.261 9.37717 34.296 9.45026C34.331 9.52334 34.3501 9.60302 34.352 9.68403C34.363 9.87603 34.306 10.123 34.152 10.37L35.848 11.43ZM35.508 7.79303L33.708 5.99303L32.293 7.40703L34.093 9.20703L35.507 7.79303H35.508ZM33.708 5.99303C33.04 5.32603 32.226 5.20003 31.6 5.20003V7.20003C31.973 7.20003 32.16 7.27403 32.293 7.40703L33.707 5.99303H33.708ZM31.6 5.20003C30.955 5.20003 30.448 5.38903 29.9 5.80003L31.1 7.40003C31.352 7.21103 31.445 7.20003 31.6 7.20003V5.20003ZM29.909 5.79403L26.909 7.99403L28.091 9.60603L31.091 7.40603L29.909 5.79403ZM28.015 7.94303C26.908 7.27803 25.713 6.85003 24.395 6.44403L23.805 8.35603C25.087 8.75003 26.092 9.12203 26.985 9.65703L28.015 7.94303ZM25.087 7.24003L24.487 3.54003L22.513 3.86003L23.113 7.56003L25.087 7.24003ZM24.496 3.79003C24.571 2.96303 24.305 2.24003 23.795 1.73003C23.3166 1.25915 22.6713 0.996712 22 1.00003V3.00003C22.16 3.00003 22.297 3.06103 22.38 3.14503C22.445 3.21003 22.529 3.33703 22.504 3.60903L24.496 3.79103V3.79003ZM21 13C25.44 13 29 16.645 29 21H31C31 15.555 26.56 11 21 11V13ZM29 21C29 25.355 25.44 29 21 29V31C26.56 31 31 26.445 31 21H29ZM21 29C16.552 29 13 25.448 13 21H11C11 26.552 15.448 31 21 31V29ZM13 21C13 16.56 16.645 13 21 13V11C15.555 11 11 15.44 11 21H13ZM24 21C24 21.7957 23.6839 22.5587 23.1213 23.1214C22.5587 23.684 21.7956 24 21 24V26C22.3261 26 23.5979 25.4732 24.5355 24.5356C25.4732 23.5979 26 22.3261 26 21H24ZM21 24C20.2044 24 19.4413 23.684 18.8787 23.1214C18.3161 22.5587 18 21.7957 18 21H16C16 22.3261 16.5268 23.5979 17.4645 24.5356C18.4021 25.4732 19.6739 26 21 26V24ZM18 21C18 20.2044 18.3161 19.4413 18.8787 18.8787C19.4413 18.3161 20.2044 18 21 18V16C19.6739 16 18.4021 16.5268 17.4645 17.4645C16.5268 18.4022 16 19.6739 16 21H18ZM21 18C21.7956 18 22.5587 18.3161 23.1213 18.8787C23.6839 19.4413 24 20.2044 24 21H26C26 19.6739 25.4732 18.4022 24.5355 17.4645C23.5979 16.5268 22.3261 16 21 16V18Z" fill="white" stroke="white"/>
</svg>
