<svg width="24" height="23" viewBox="0 0 24 23" fill="none" xmlns="http://www.w3.org/2000/svg">
<path fill-rule="evenodd" clip-rule="evenodd" d="M1 0C0.734784 0 0.48043 0.105357 0.292893 0.292893C0.105357 0.48043 0 0.734784 0 1C0 1.26522 0.105357 1.51957 0.292893 1.70711C0.48043 1.89464 0.734784 2 1 2H2.737C2.844 2 2.99 2.01 3.189 2.501C3.285 2.738 3.361 3.019 3.433 3.332L3.499 3.632V3.635C3.546 3.849 3.596 4.079 3.644 4.258C3.781 4.771 4.474 7.179 5.129 9.438L6.015 12.495L6.21 13.169C6.14992 13.2266 6.09221 13.2867 6.037 13.349C5.585 13.866 5.211 14.655 5.211 15.786C5.21 17.624 6.89 19 8.526 19H20C19.4696 19 18.9609 19.2107 18.5858 19.5858C18.2107 19.9609 18 20.4696 18 21C18 21.5304 18.2107 22.0391 18.5858 22.4142C18.9609 22.7893 19.4696 23 20 23C20.5304 23 21.0391 22.7893 21.4142 22.4142C21.7893 22.0391 22 21.5304 22 21C22 20.4696 21.7893 19.9609 21.4142 19.5858C21.0391 19.2107 20.5304 19 20 19H23C23.2652 19 23.5196 18.8946 23.7071 18.7071C23.8946 18.5196 24 18.2652 24 18C24 17.7348 23.8946 17.4804 23.7071 17.2929C23.5196 17.1054 23.2652 17 23 17H8.526C7.846 17 7.211 16.376 7.211 15.786C7.211 15.131 7.415 14.813 7.541 14.668C7.57625 14.6279 7.61507 14.5911 7.657 14.558L23.052 13.748C23.3136 13.7299 23.5577 13.6097 23.7315 13.4134C23.9054 13.217 23.9952 12.9603 23.9815 12.6984C23.9679 12.4365 23.8519 12.1904 23.6586 12.0132C23.4653 11.836 23.2101 11.7419 22.948 11.751L22.683 11.765L23.986 4.169C24.0106 4.02544 24.0036 3.87823 23.9654 3.73767C23.9272 3.59711 23.8587 3.4666 23.7648 3.35526C23.6709 3.24392 23.5538 3.15444 23.4217 3.09307C23.2896 3.03171 23.1457 2.99994 23 3H5.408L5.383 2.886C5.29999 2.49858 5.1863 2.11838 5.043 1.749C4.732 0.989 4.077 0 2.736 0H1ZM6.57 7.224L5.93 5H21.814L20.636 11.873L8.108 12.531L7.935 11.938C7.47955 10.3669 7.02488 8.79556 6.571 7.224H6.57ZM8 23C8.53043 23 9.03914 22.7893 9.41421 22.4142C9.78929 22.0391 10 21.5304 10 21C10 20.4696 9.78929 19.9609 9.41421 19.5858C9.03914 19.2107 8.53043 19 8 19C7.46957 19 6.96086 19.2107 6.58579 19.5858C6.21071 19.9609 6 20.4696 6 21C6 21.5304 6.21071 22.0391 6.58579 22.4142C6.96086 22.7893 7.46957 23 8 23Z" fill="white"/>
</svg>
