<svg width="85" height="42" viewBox="0 0 85 42" fill="none" xmlns="http://www.w3.org/2000/svg">
<rect x="23" y="1.26221" width="13.269" height="13.269" rx="6" stroke="#006AFF" stroke-opacity="0.5" stroke-width="2"/>
<rect x="23" y="14.3657" width="13.269" height="13.269" rx="6" stroke="#006AFF" stroke-opacity="0.5" stroke-width="2"/>
<rect x="23" y="27.469" width="13.269" height="13.269" rx="6" stroke="#006AFF" stroke-opacity="0.5" stroke-width="2"/>
<rect x="36.3656" y="1.26221" width="13.269" height="13.269" rx="6" stroke="#006AFF" stroke-opacity="0.5" stroke-width="2"/>
<rect x="36.3656" y="14.3657" width="13.269" height="13.269" rx="6" stroke="#006AFF" stroke-opacity="0.5" stroke-width="2"/>
<rect x="36.3656" y="27.469" width="13.269" height="13.269" rx="6" stroke="#006AFF" stroke-opacity="0.5" stroke-width="2"/>
<rect x="49.731" y="1.26221" width="13.269" height="13.269" rx="6" stroke="#006AFF" stroke-opacity="0.5" stroke-width="2"/>
<rect x="49.731" y="14.3657" width="13.269" height="13.269" rx="6" stroke="#006AFF" stroke-opacity="0.5" stroke-width="2"/>
<rect x="49.731" y="27.469" width="13.269" height="13.269" rx="6" stroke="#006AFF" stroke-opacity="0.5" stroke-width="2"/>
<path d="M28.2488 6.53221L29.4988 5.67221V11.2622H30.8188V4.12221H29.6788L27.5988 5.54221L28.2488 6.53221Z" fill="#006AFF"/>
<path d="M31.9141 23.5421V22.4321H31.0541V17.9721H29.6441L26.6841 22.5221V23.5421H29.7341V25.1121H31.0541V23.5421H31.9141ZM27.9041 22.4321L29.7641 19.5821V22.4321H27.9041Z" fill="#006AFF"/>
<path d="M31.8841 31.007H26.8141V32.217H30.3841L27.2741 38.147H28.7241L31.8841 31.967V31.007Z" fill="#006AFF"/>
<path d="M45.6338 11.2622V10.0622H42.2438C42.6338 9.50221 43.6438 8.87221 44.3838 8.24221C45.0738 7.67221 45.5538 7.09221 45.5538 6.16221C45.5538 4.83221 44.5538 3.99221 43.1238 3.99221C41.8838 3.99221 41.0038 4.63221 40.5238 5.52221L41.5738 6.13221C41.8538 5.52221 42.3938 5.17221 43.0238 5.17221C43.6438 5.17221 44.1438 5.51221 44.1438 6.16221C44.1438 6.86221 43.5338 7.33221 42.6738 8.08221C41.3538 9.25221 40.6338 10.1022 40.6338 11.0922V11.2622H45.6338Z" fill="#006AFF"/>
<path d="M43.0838 25.2421C44.8838 25.2421 45.7338 24.0121 45.7338 22.7421C45.7338 21.3321 44.7038 20.4221 43.3738 20.4221C42.9038 20.4221 42.3838 20.5421 42.0538 20.8021L42.1938 19.1821H45.3438V17.9721H41.1438L40.9038 21.7921L41.6238 22.1421C41.9638 21.7421 42.4238 21.4821 43.0238 21.4821C43.8438 21.4821 44.3738 21.9621 44.3738 22.7621C44.3738 23.5921 43.8138 24.0721 43.0538 24.0721C42.4138 24.0721 41.9438 23.7121 41.7238 23.1721L40.6238 23.7421C41.0438 24.7021 41.8838 25.2421 43.0838 25.2421Z" fill="#006AFF"/>
<path d="M43.1638 37.207C42.4638 37.207 42.0038 36.817 42.0038 36.047C42.0038 35.327 42.4138 34.887 43.1638 34.887C43.9138 34.887 44.3238 35.307 44.3238 36.037C44.3238 36.797 43.8738 37.207 43.1638 37.207ZM43.1638 33.887C42.6538 33.887 42.1538 33.647 42.1538 32.927C42.1538 32.207 42.6338 31.937 43.1638 31.937C43.6938 31.937 44.1838 32.207 44.1838 32.927C44.1838 33.647 43.6838 33.887 43.1638 33.887ZM43.1638 38.277C44.7838 38.277 45.6938 37.337 45.6938 36.117C45.6938 35.317 45.2938 34.647 44.5238 34.337C45.0938 34.057 45.5138 33.537 45.5138 32.767C45.5138 31.557 44.4538 30.877 43.1638 30.877C41.8838 30.877 40.8238 31.557 40.8238 32.767C40.8238 33.537 41.2538 34.057 41.8038 34.337C41.0538 34.647 40.6438 35.317 40.6438 36.127C40.6438 37.337 41.5538 38.277 43.1638 38.277Z" fill="#006AFF"/>
<path d="M56.5337 7.95221C56.6937 7.84221 56.8837 7.76221 57.1337 7.76221C57.7737 7.76221 58.2137 8.24221 58.2137 8.92221C58.2137 9.72221 57.6237 10.2222 56.8337 10.2222C56.1537 10.2222 55.6537 9.84221 55.3737 9.28221L54.3437 9.89221C54.8237 10.7822 55.5837 11.3922 56.8637 11.3922C58.6937 11.3922 59.5637 10.1722 59.5637 8.91221C59.5637 7.74221 58.8137 6.95221 57.8037 6.81221L59.2537 4.96221V4.12221H54.6737V5.33221H57.6037L55.9737 7.41221L56.5337 7.95221Z" fill="#006AFF"/>
<path d="M59.2737 18.3321C58.7937 18.0021 58.1537 17.8521 57.5137 17.8521C56.4937 17.8521 55.7137 18.2121 55.1937 18.9121C54.7137 19.5821 54.4737 20.5121 54.4737 21.6821C54.4737 23.9921 55.4637 25.2421 57.0937 25.2421C58.7237 25.2421 59.6637 24.0921 59.6637 22.7221C59.6637 21.3021 58.6637 20.3821 57.3537 20.3821C56.5637 20.3821 56.0337 20.7221 55.7937 21.0421C55.7937 19.8121 56.4037 18.9921 57.5837 18.9921C57.9537 18.9921 58.3937 19.0721 58.7837 19.3421L59.2737 18.3321ZM55.8637 22.6921C55.8637 21.9121 56.3737 21.4421 57.0937 21.4421C57.9337 21.4421 58.3137 22.0621 58.3137 22.7921C58.3137 23.5521 57.8937 24.1021 57.1337 24.1021C56.2737 24.1021 55.8637 23.4121 55.8637 22.6921Z" fill="#006AFF"/>
<path d="M54.7637 37.797C55.2337 38.107 55.8837 38.267 56.5437 38.267C57.5337 38.267 58.3237 37.927 58.8537 37.207C59.3437 36.537 59.5737 35.617 59.5737 34.457C59.5737 32.117 58.5837 30.877 56.9437 30.877C55.3237 30.877 54.3837 32.017 54.3837 33.397C54.3837 34.817 55.3737 35.737 56.6737 35.737C57.4837 35.737 58.0237 35.377 58.2537 35.057C58.2537 36.307 57.6437 37.127 56.4737 37.127C56.0837 37.127 55.6437 37.037 55.2737 36.777L54.7637 37.797ZM58.1837 33.407C58.1837 34.197 57.6837 34.677 56.9537 34.677C56.1237 34.677 55.7337 34.067 55.7337 33.337C55.7337 32.577 56.1437 32.017 56.9137 32.017C57.7637 32.017 58.1837 32.687 58.1837 33.407Z" fill="#006AFF"/>
<path d="M69.1868 14.3077L81.0549 6" stroke="#006AFF" stroke-opacity="0.5" stroke-width="3"/>
<path d="M69.5824 21.8242H84.6154" stroke="#006AFF" stroke-opacity="0.5" stroke-width="3"/>
<path d="M68 29.3406L82.6374 36.8571" stroke="#006AFF" stroke-opacity="0.5" stroke-width="3"/>
<path d="M15.4285 14.3077L3.5604 6" stroke="#006AFF" stroke-opacity="0.5" stroke-width="3"/>
<path d="M15.033 21.8242H-8.28505e-06" stroke="#006AFF" stroke-opacity="0.5" stroke-width="3"/>
<path d="M16.6154 29.3406L1.97799 36.8571" stroke="#006AFF" stroke-opacity="0.5" stroke-width="3"/>
</svg>
