<svg width="42" height="42" viewBox="0 0 42 42" fill="none" xmlns="http://www.w3.org/2000/svg">
<rect x="1" y="1" width="13.269" height="13.269" rx="6" stroke="white" stroke-width="2"/>
<rect x="1" y="14.1035" width="13.269" height="13.269" rx="6" stroke="white" stroke-width="2"/>
<rect x="1" y="27.2068" width="13.269" height="13.269" rx="6" stroke="white" stroke-width="2"/>
<rect x="14.3656" y="1" width="13.269" height="13.269" rx="6" stroke="white" stroke-width="2"/>
<rect x="14.3656" y="14.1035" width="13.269" height="13.269" rx="6" stroke="white" stroke-width="2"/>
<rect x="14.3656" y="27.2068" width="13.269" height="13.269" rx="6" stroke="white" stroke-width="2"/>
<rect x="27.731" y="1" width="13.269" height="13.269" rx="6" stroke="white" stroke-width="2"/>
<rect x="27.731" y="14.1035" width="13.269" height="13.269" rx="6" stroke="white" stroke-width="2"/>
<rect x="27.731" y="27.2068" width="13.269" height="13.269" rx="6" stroke="white" stroke-width="2"/>
<path d="M9.91409 23.2799V22.1699H9.05409V17.7099H7.64409L4.68409 22.2599V23.2799H7.73409V24.8499H9.05409V23.2799H9.91409ZM5.90409 22.1699L7.76409 19.3199V22.1699H5.90409Z" fill="white"/>
<path d="M9.88409 30.7448H4.81409V31.9548H8.38409L5.27409 37.8848H6.72409L9.88409 31.7048V30.7448Z" fill="white"/>
<path d="M23.6338 11V9.8H20.2438C20.6338 9.24 21.6438 8.61 22.3838 7.98C23.0738 7.41 23.5538 6.83 23.5538 5.9C23.5538 4.57 22.5538 3.73 21.1238 3.73C19.8838 3.73 19.0038 4.37 18.5238 5.26L19.5738 5.87C19.8538 5.26 20.3938 4.91 21.0238 4.91C21.6438 4.91 22.1438 5.25 22.1438 5.9C22.1438 6.6 21.5338 7.07 20.6738 7.82C19.3538 8.99 18.6338 9.84 18.6338 10.83V11H23.6338Z" fill="white"/>
<path d="M21.0838 24.9799C22.8838 24.9799 23.7338 23.7499 23.7338 22.4799C23.7338 21.0699 22.7038 20.1599 21.3738 20.1599C20.9038 20.1599 20.3838 20.2799 20.0538 20.5399L20.1938 18.9199H23.3438V17.7099H19.1438L18.9038 21.5299L19.6238 21.8799C19.9638 21.4799 20.4238 21.2199 21.0238 21.2199C21.8438 21.2199 22.3738 21.6999 22.3738 22.4999C22.3738 23.3299 21.8138 23.8099 21.0538 23.8099C20.4138 23.8099 19.9438 23.4499 19.7238 22.9099L18.6238 23.4799C19.0438 24.4399 19.8838 24.9799 21.0838 24.9799Z" fill="white"/>
<path d="M21.1638 36.9448C20.4638 36.9448 20.0038 36.5548 20.0038 35.7848C20.0038 35.0648 20.4138 34.6248 21.1638 34.6248C21.9138 34.6248 22.3238 35.0448 22.3238 35.7748C22.3238 36.5348 21.8738 36.9448 21.1638 36.9448ZM21.1638 33.6248C20.6538 33.6248 20.1538 33.3848 20.1538 32.6648C20.1538 31.9448 20.6338 31.6748 21.1638 31.6748C21.6938 31.6748 22.1838 31.9448 22.1838 32.6648C22.1838 33.3848 21.6838 33.6248 21.1638 33.6248ZM21.1638 38.0148C22.7838 38.0148 23.6938 37.0748 23.6938 35.8548C23.6938 35.0548 23.2938 34.3848 22.5238 34.0748C23.0938 33.7948 23.5138 33.2748 23.5138 32.5048C23.5138 31.2948 22.4538 30.6148 21.1638 30.6148C19.8838 30.6148 18.8238 31.2948 18.8238 32.5048C18.8238 33.2748 19.2538 33.7948 19.8038 34.0748C19.0538 34.3848 18.6438 35.0548 18.6438 35.8648C18.6438 37.0748 19.5538 38.0148 21.1638 38.0148Z" fill="white"/>
<path d="M34.5337 7.69C34.6937 7.58 34.8837 7.5 35.1337 7.5C35.7737 7.5 36.2137 7.98 36.2137 8.66C36.2137 9.46 35.6237 9.96 34.8337 9.96C34.1537 9.96 33.6537 9.58 33.3737 9.02L32.3437 9.63C32.8237 10.52 33.5837 11.13 34.8637 11.13C36.6937 11.13 37.5637 9.91 37.5637 8.65C37.5637 7.48 36.8137 6.69 35.8037 6.55L37.2537 4.7V3.86H32.6737V5.07H35.6037L33.9737 7.15L34.5337 7.69Z" fill="white"/>
<path d="M37.2737 18.0699C36.7937 17.7399 36.1537 17.5899 35.5137 17.5899C34.4937 17.5899 33.7137 17.9499 33.1937 18.6499C32.7137 19.3199 32.4737 20.2499 32.4737 21.4199C32.4737 23.7299 33.4637 24.9799 35.0937 24.9799C36.7237 24.9799 37.6637 23.8299 37.6637 22.4599C37.6637 21.0399 36.6637 20.1199 35.3537 20.1199C34.5637 20.1199 34.0337 20.4599 33.7937 20.7799C33.7937 19.5499 34.4037 18.7299 35.5837 18.7299C35.9537 18.7299 36.3937 18.8099 36.7837 19.0799L37.2737 18.0699ZM33.8637 22.4299C33.8637 21.6499 34.3737 21.1799 35.0937 21.1799C35.9337 21.1799 36.3137 21.7999 36.3137 22.5299C36.3137 23.2899 35.8937 23.8399 35.1337 23.8399C34.2737 23.8399 33.8637 23.1499 33.8637 22.4299Z" fill="white"/>
<path d="M32.7637 37.5348C33.2337 37.8448 33.8837 38.0048 34.5437 38.0048C35.5337 38.0048 36.3237 37.6648 36.8537 36.9448C37.3437 36.2748 37.5737 35.3548 37.5737 34.1948C37.5737 31.8548 36.5837 30.6148 34.9437 30.6148C33.3237 30.6148 32.3837 31.7548 32.3837 33.1348C32.3837 34.5548 33.3737 35.4748 34.6737 35.4748C35.4837 35.4748 36.0237 35.1148 36.2537 34.7948C36.2537 36.0448 35.6437 36.8648 34.4737 36.8648C34.0837 36.8648 33.6437 36.7748 33.2737 36.5148L32.7637 37.5348ZM36.1837 33.1448C36.1837 33.9348 35.6837 34.4148 34.9537 34.4148C34.1237 34.4148 33.7337 33.8048 33.7337 33.0748C33.7337 32.3148 34.1437 31.7548 34.9137 31.7548C35.7637 31.7548 36.1837 32.4248 36.1837 33.1448Z" fill="white"/>
<path d="M6.24879 6.27L7.49879 5.41V11H8.81879V3.86H7.67879L5.59879 5.28L6.24879 6.27Z" fill="white"/>
</svg>
