<svg width="226" height="211" viewBox="0 0 226 211" fill="none" xmlns="http://www.w3.org/2000/svg">
<path fill-rule="evenodd" clip-rule="evenodd" d="M28.4481 1.96581C27.3772 0.787456 25.882 0.0827929 24.2915 0.00684073C22.701 -0.0691115 21.1455 0.48987 19.9671 1.56081C18.7888 2.63176 18.0841 4.12694 18.0082 5.71744C17.9322 7.30793 18.4912 8.86346 19.5621 10.0418L79.5621 76.0418C80.0924 76.6249 80.7323 77.0978 81.4454 77.4336C82.1584 77.7693 82.9306 77.9613 83.7179 77.9987C84.5051 78.036 85.292 77.9179 86.0336 77.6511C86.7753 77.3843 87.4571 76.9741 88.0401 76.4438C88.6232 75.9135 89.0961 75.2736 89.4319 74.5606C89.7676 73.8475 89.9596 73.0753 89.997 72.2881C90.0343 71.5008 89.9162 70.7139 89.6494 69.9723C89.3826 69.2307 88.9724 68.5489 88.4421 67.9658L28.4421 1.96581H28.4481ZM115.796 21.0038C115.796 19.4125 115.164 17.8864 114.039 16.7612C112.914 15.636 111.387 15.0038 109.796 15.0038C108.205 15.0038 106.679 15.636 105.553 16.7612C104.428 17.8864 103.796 19.4125 103.796 21.0038V69.0038C103.796 70.5951 104.428 72.1212 105.553 73.2465C106.679 74.3717 108.205 75.0038 109.796 75.0038C111.387 75.0038 112.914 74.3717 114.039 73.2465C115.164 72.1212 115.796 70.5951 115.796 69.0038V21.0038ZM141.404 33.2798C141.081 32.047 140.374 30.949 139.386 30.1449C138.397 29.3409 137.178 28.8725 135.905 28.8076C134.632 28.7428 133.372 29.0849 132.307 29.7843C131.242 30.4837 130.427 31.5042 129.98 32.6978L120.98 56.6978C120.422 58.1881 120.478 59.8392 121.137 61.2879C121.796 62.7366 123.003 63.8643 124.493 64.4228C125.983 64.9814 127.634 64.925 129.083 64.2662C130.532 63.6074 131.66 62.4001 132.218 60.9098L141.218 36.9098C141.654 35.7482 141.719 34.4799 141.404 33.2798V33.2798ZM168.386 44.6558C168.892 44.0515 169.274 43.3534 169.51 42.6015C169.746 41.8496 169.832 41.0585 169.762 40.2735C169.692 39.4885 169.469 38.7248 169.104 38.0262C168.739 37.3276 168.24 36.7077 167.636 36.2018C167.032 35.696 166.334 35.3141 165.582 35.078C164.83 34.8419 164.039 34.7563 163.254 34.8259C162.469 34.8956 161.705 35.1192 161.007 35.4839C160.308 35.8487 159.688 36.3475 159.182 36.9518L140.582 59.1518C139.561 60.3723 139.066 61.9487 139.206 63.5341C139.347 65.1196 140.112 66.5842 141.332 67.6058C142.553 68.6274 144.129 69.1223 145.714 68.9817C147.3 68.841 148.765 68.0763 149.786 66.8558L168.386 44.6558ZM93.2901 40.7078C93.0641 39.933 92.6842 39.2117 92.1729 38.5872C91.6617 37.9627 91.0297 37.4477 90.3148 37.0731C89.5999 36.6986 88.8167 36.4721 88.0122 36.4072C87.2077 36.3424 86.3984 36.4405 85.6328 36.6957C84.8671 36.9509 84.1608 37.358 83.5561 37.8926C82.9514 38.4272 82.4608 39.0782 82.1136 39.8069C81.7664 40.5355 81.5698 41.3266 81.5355 42.133C81.5013 42.9394 81.63 43.7444 81.9141 44.4998L87.9141 62.4998C88.1401 63.2746 88.5201 63.9959 89.0313 64.6204C89.5426 65.2449 90.1746 65.7599 90.8895 66.1345C91.6044 66.5091 92.3875 66.7356 93.192 66.8004C93.9965 66.8653 94.8058 66.7671 95.5715 66.5119C96.3372 66.2567 97.0435 65.8496 97.6482 65.315C98.2528 64.7805 98.7435 64.1294 99.0906 63.4008C99.4378 62.6722 99.6344 61.881 99.6687 61.0746C99.703 60.2683 99.5742 59.4633 99.2901 58.7078L93.2901 40.7078ZM14.9061 42.7598C14.2159 42.3493 13.4503 42.0815 12.6547 41.9723C11.8591 41.8631 11.0497 41.9147 10.2744 42.1241C9.49907 42.3335 8.7737 42.6964 8.14125 43.1913C7.5088 43.6862 6.98213 44.303 6.59247 45.0052C6.2028 45.7074 5.95807 46.4807 5.87277 47.2792C5.78747 48.0778 5.86334 48.8853 6.09589 49.654C6.32843 50.4226 6.71292 51.1368 7.22657 51.7541C7.74021 52.3714 8.37256 52.8794 9.08613 53.2478L63.0861 83.2478C63.7763 83.6584 64.5419 83.9262 65.3375 84.0354C66.1331 84.1446 66.9426 84.093 67.7179 83.8836C68.4932 83.6742 69.2185 83.3113 69.851 82.8164C70.4835 82.3215 71.0101 81.7046 71.3998 81.0024C71.7895 80.3002 72.0342 79.5269 72.1195 78.7284C72.2048 77.9299 72.1289 77.1223 71.8964 76.3537C71.6638 75.585 71.2793 74.8708 70.7657 74.2535C70.252 73.6362 69.6197 73.1283 68.9061 72.7598L14.9061 42.7598V42.7598ZM210.59 53.7998C211.957 52.9985 212.951 51.6891 213.356 50.1573C213.761 48.6256 213.544 46.9958 212.752 45.6236C211.96 44.2515 210.657 43.2484 209.128 42.8333C207.599 42.4182 205.967 42.6247 204.59 43.4078L138.008 81.8078C137.299 82.1866 136.673 82.7042 136.167 83.3298C135.662 83.9553 135.287 84.6761 135.066 85.4493C134.845 86.2225 134.781 87.0323 134.879 87.8306C134.977 88.6288 135.234 89.3993 135.636 90.0961C136.037 90.793 136.575 91.402 137.216 91.8869C137.858 92.3719 138.59 92.7229 139.37 92.9192C140.15 93.1154 140.962 93.1529 141.756 93.0293C142.551 92.9057 143.313 92.6236 143.996 92.1998L210.596 53.7998H210.59ZM219.902 91.7318C220.696 91.6291 221.461 91.3687 222.152 90.9659C222.844 90.5631 223.448 90.026 223.929 89.3862C224.41 88.7464 224.758 88.017 224.952 87.2407C225.147 86.4644 225.184 85.6571 225.062 84.8661C224.94 84.0752 224.661 83.3167 224.241 82.6352C223.822 81.9538 223.27 81.3632 222.619 80.8982C221.967 80.4332 221.229 80.1032 220.449 79.9276C219.668 79.752 218.86 79.7344 218.072 79.8758L210.272 81.0758C209.478 81.1785 208.713 81.4389 208.022 81.8417C207.33 82.2446 206.726 82.7817 206.246 83.4214C205.765 84.0612 205.417 84.7907 205.222 85.5669C205.027 86.3432 204.99 87.1506 205.112 87.9415C205.234 88.7324 205.513 89.4909 205.933 90.1724C206.353 90.8538 206.904 91.4445 207.556 91.9095C208.207 92.3745 208.945 92.7045 209.726 92.8801C210.506 93.0556 211.314 93.0732 212.102 92.9318L219.902 91.7318ZM27.9681 84.6818C27.1904 84.5542 26.3952 84.581 25.6279 84.7606C24.8606 84.9403 24.1361 85.2694 23.496 85.729C22.8558 86.1887 22.3124 86.7699 21.8969 87.4396C21.4813 88.1092 21.2018 88.8541 21.0741 89.6318C20.9465 90.4095 20.9733 91.2047 21.1529 91.9721C21.3326 92.7394 21.6617 93.4638 22.1213 94.104C22.581 94.7442 23.1622 95.2875 23.8319 95.7031C24.5015 96.1186 25.2464 96.3982 26.0241 96.5258L73.4241 104.326C74.2018 104.454 74.9971 104.427 75.7646 104.248C76.5321 104.069 77.2567 103.74 77.8972 103.281C78.5376 102.821 79.0813 102.24 79.4972 101.571C79.9131 100.901 80.1931 100.156 80.3211 99.3788C80.4492 98.6011 80.4228 97.8058 80.2435 97.0383C80.0641 96.2709 79.7354 95.5462 79.276 94.9058C78.8167 94.2653 78.2357 93.7216 77.5662 93.3057C76.8967 92.8898 76.1518 92.6099 75.3741 92.4818L27.9741 84.6818H27.9681ZM193.55 96.5258C195.087 96.2369 196.45 95.3595 197.349 94.0804C198.249 92.8013 198.613 91.2217 198.366 89.6778C198.118 88.134 197.277 86.7479 196.022 85.8147C194.767 84.8816 193.198 84.4751 191.648 84.6818L158.048 90.0818C157.269 90.2052 156.522 90.481 155.85 90.8936C155.178 91.3062 154.594 91.8474 154.131 92.4862C153.668 93.1249 153.336 93.8487 153.154 94.6161C152.972 95.3834 152.942 96.1792 153.068 96.9578C153.193 97.7359 153.47 98.4819 153.883 99.153C154.296 99.8241 154.837 100.407 155.476 100.869C156.114 101.331 156.838 101.663 157.604 101.845C158.371 102.027 159.166 102.057 159.944 101.932L193.55 96.5318V96.5258ZM99.5601 94.7618C98.4353 95.887 97.8034 97.4128 97.8034 99.0038C97.8034 100.595 98.4353 102.121 99.5601 103.246L101.318 105.004L99.5601 106.762C98.9871 107.315 98.53 107.977 98.2155 108.709C97.9011 109.441 97.7355 110.229 97.7286 111.025C97.7217 111.822 97.8735 112.612 98.1752 113.35C98.4769 114.087 98.9224 114.757 99.4858 115.32C100.049 115.884 100.719 116.329 101.456 116.631C102.194 116.932 102.984 117.084 103.781 117.077C104.577 117.07 105.365 116.905 106.097 116.59C106.829 116.276 107.491 115.819 108.044 115.246L109.802 113.488L111.56 115.246C112.114 115.819 112.776 116.276 113.508 116.59C114.24 116.905 115.027 117.07 115.824 117.077C116.62 117.084 117.41 116.932 118.148 116.631C118.885 116.329 119.555 115.884 120.118 115.32C120.682 114.757 121.127 114.087 121.429 113.35C121.731 112.612 121.883 111.822 121.876 111.025C121.869 110.229 121.703 109.441 121.389 108.709C121.074 107.977 120.617 107.315 120.044 106.762L118.286 105.004L120.044 103.246C120.617 102.692 121.074 102.03 121.389 101.298C121.703 100.566 121.869 99.7789 121.876 98.9822C121.883 98.1855 121.731 97.3955 121.429 96.6581C121.127 95.9207 120.682 95.2508 120.118 94.6874C119.555 94.1241 118.885 93.6786 118.148 93.3769C117.41 93.0752 116.62 92.9234 115.824 92.9303C115.027 92.9372 114.24 93.1028 113.508 93.4172C112.776 93.7317 112.114 94.1888 111.56 94.7618L109.802 96.5198L108.044 94.7618C106.919 93.637 105.393 93.0051 103.802 93.0051C102.211 93.0051 100.685 93.637 99.5601 94.7618ZM64.6581 118.714C66.2256 118.435 67.6182 117.546 68.5296 116.24C69.441 114.935 69.7966 113.321 69.5181 111.754C69.2396 110.186 68.3499 108.794 67.0447 107.882C65.7394 106.971 64.1256 106.615 62.5581 106.894L35.5581 111.694C34.782 111.832 34.0407 112.121 33.3764 112.546C32.7121 112.97 32.138 113.521 31.6867 114.167C31.2354 114.814 30.9158 115.542 30.7462 116.312C30.5766 117.082 30.5602 117.878 30.6981 118.654C30.836 119.43 31.1254 120.171 31.5498 120.836C31.9742 121.5 32.5253 122.074 33.1716 122.525C33.8179 122.977 34.5467 123.296 35.3165 123.466C36.0863 123.635 36.882 123.652 37.6581 123.514L64.6581 118.714ZM162.434 108.094C161.648 107.936 160.839 107.938 160.054 108.098C159.269 108.258 158.524 108.574 157.863 109.027C157.202 109.48 156.638 110.061 156.205 110.735C155.772 111.409 155.479 112.164 155.342 112.953C155.205 113.743 155.228 114.552 155.409 115.332C155.59 116.113 155.926 116.85 156.396 117.498C156.867 118.147 157.462 118.695 158.148 119.11C158.833 119.525 159.595 119.798 160.388 119.914L191.588 125.314C193.133 125.534 194.703 125.143 195.965 124.224C197.226 123.306 198.08 121.932 198.346 120.394C198.611 118.856 198.267 117.276 197.386 115.987C196.505 114.699 195.157 113.805 193.628 113.494L162.434 108.094V108.094ZM139.808 115.408C138.431 114.625 136.8 114.418 135.271 114.833C133.741 115.248 132.439 116.252 131.646 117.624C130.854 118.996 130.637 120.626 131.042 122.157C131.447 123.689 132.441 124.999 133.808 125.8L196.208 161.8C196.891 162.2 197.646 162.461 198.43 162.568C199.214 162.676 200.011 162.627 200.776 162.424C201.541 162.222 202.259 161.871 202.887 161.39C203.516 160.909 204.043 160.309 204.439 159.624C204.834 158.939 205.091 158.182 205.193 157.397C205.295 156.612 205.24 155.815 205.033 155.052C204.826 154.288 204.469 153.573 203.985 152.948C203.5 152.322 202.896 151.799 202.208 151.408L139.808 115.408V115.408ZM71.4021 134.2C72.7046 133.367 73.6359 132.064 74.0022 130.562C74.3684 129.061 74.1414 127.475 73.3685 126.136C72.5955 124.798 71.336 123.808 69.8522 123.375C68.3684 122.941 66.7745 123.096 65.4021 123.808L34.2021 141.808C33.5143 142.199 32.9105 142.722 32.4257 143.348C31.9409 143.973 31.5846 144.688 31.3773 145.452C31.1699 146.215 31.1157 147.012 31.2177 147.797C31.3197 148.582 31.5759 149.339 31.9715 150.024C32.3672 150.709 32.8945 151.309 33.5231 151.79C34.1516 152.271 34.8691 152.622 35.634 152.824C36.399 153.027 37.1965 153.076 37.9805 152.968C38.7645 152.861 39.5195 152.6 40.2021 152.2L71.4021 134.2ZM91.6101 136.468C92.1234 135.866 92.5125 135.168 92.7551 134.415C92.9977 133.662 93.0891 132.869 93.0238 132.08C92.9586 131.292 92.7381 130.524 92.375 129.821C92.012 129.119 91.5135 128.495 90.9083 127.985C90.3031 127.476 89.6032 127.091 88.8487 126.853C88.0943 126.615 87.3002 126.529 86.5122 126.599C85.7243 126.669 84.9579 126.894 84.2574 127.262C83.5568 127.629 82.9358 128.131 82.4301 128.74L24.8301 197.14C24.3169 197.742 23.9278 198.439 23.6851 199.192C23.4425 199.945 23.3512 200.739 23.4164 201.527C23.4817 202.316 23.7021 203.083 24.0652 203.786C24.4283 204.489 24.9267 205.113 25.5319 205.623C26.1371 206.132 26.8371 206.517 27.5915 206.755C28.346 206.993 29.1401 207.079 29.928 207.009C30.716 206.939 31.4823 206.713 32.1829 206.346C32.8835 205.979 33.5044 205.476 34.0101 204.868L91.6101 136.468V136.468ZM129.854 141.388C129.589 140.645 129.181 139.962 128.652 139.377C128.123 138.792 127.485 138.318 126.772 137.98C126.06 137.642 125.288 137.447 124.501 137.408C123.713 137.368 122.926 137.484 122.183 137.749C121.44 138.014 120.757 138.422 120.173 138.951C119.588 139.48 119.113 140.118 118.775 140.831C118.437 141.543 118.243 142.315 118.203 143.102C118.163 143.89 118.279 144.677 118.544 145.42L140.144 206.02C140.409 206.762 140.817 207.445 141.346 208.029C141.874 208.614 142.513 209.088 143.225 209.426C143.937 209.764 144.709 209.958 145.496 209.997C146.283 210.037 147.07 209.921 147.812 209.656C148.554 209.391 149.237 208.983 149.822 208.454C150.406 207.925 150.881 207.287 151.218 206.575C151.556 205.863 151.75 205.091 151.789 204.304C151.829 203.517 151.713 202.73 151.448 201.988L129.848 141.388H129.854ZM151.04 144.376C150.537 143.769 149.92 143.267 149.223 142.898C148.527 142.53 147.764 142.302 146.979 142.228C146.195 142.154 145.403 142.236 144.65 142.468C143.896 142.7 143.196 143.078 142.589 143.581C141.982 144.084 141.48 144.701 141.111 145.398C140.743 146.094 140.515 146.857 140.441 147.642C140.368 148.426 140.449 149.218 140.681 149.971C140.913 150.725 141.291 151.425 141.794 152.032L159.194 173.032C160.214 174.244 161.671 175.003 163.248 175.145C164.825 175.287 166.394 174.8 167.614 173.789C168.833 172.779 169.603 171.328 169.757 169.752C169.911 168.176 169.435 166.603 168.434 165.376L151.04 144.376V144.376ZM98.3601 147.916C97.8317 146.873 97.0106 146.007 95.9973 145.425C94.9841 144.842 93.8228 144.567 92.6559 144.635C91.489 144.702 90.3671 145.109 89.4278 145.805C88.4886 146.5 87.7727 147.455 87.3681 148.552L75.3681 181.552C75.0808 182.296 74.9447 183.09 74.9679 183.887C74.991 184.685 75.173 185.47 75.5031 186.196C75.8331 186.922 76.3047 187.575 76.8902 188.117C77.4757 188.659 78.1634 189.078 78.913 189.351C79.6626 189.624 80.459 189.745 81.2558 189.706C82.0526 189.667 82.8337 189.47 83.5534 189.126C84.2731 188.782 84.9169 188.298 85.4473 187.702C85.9776 187.106 86.3838 186.411 86.6421 185.656L98.6421 152.656C98.9231 151.889 99.0436 151.073 98.9962 150.257C98.9487 149.442 98.7342 148.645 98.3661 147.916H98.3601ZM22.7601 162.43C24.1461 161.646 25.1641 160.344 25.59 158.81C26.0159 157.275 25.8148 155.635 25.0311 154.249C24.2474 152.863 22.9452 151.845 21.411 151.419C19.8767 150.993 18.2362 151.194 16.8501 151.978L3.05013 159.778C1.66411 160.561 0.645867 161.862 0.219409 163.396C-0.207049 164.93 -0.00679082 166.57 0.776128 167.956C1.55905 169.342 2.8605 170.36 4.39417 170.787C5.92784 171.213 7.56811 171.013 8.95413 170.23L22.7541 162.43H22.7601ZM115.808 165.004C115.808 163.413 115.176 161.886 114.051 160.761C112.926 159.636 111.399 159.004 109.808 159.004C108.217 159.004 106.691 159.636 105.565 160.761C104.44 161.886 103.808 163.413 103.808 165.004V189.004C103.808 190.595 104.44 192.121 105.565 193.246C106.691 194.372 108.217 195.004 109.808 195.004C111.399 195.004 112.926 194.372 114.051 193.246C115.176 192.121 115.808 190.595 115.808 189.004V165.004V165.004ZM145.808 12.0038C147.399 12.0038 148.926 11.3717 150.051 10.2465C151.176 9.12124 151.808 7.59511 151.808 6.00381C151.808 4.41251 151.176 2.88639 150.051 1.76117C148.926 0.635955 147.399 0.00381377 145.808 0.00381377C144.217 0.00381377 142.691 0.635955 141.565 1.76117C140.44 2.88639 139.808 4.41251 139.808 6.00381C139.808 7.59511 140.44 9.12124 141.565 10.2465C142.691 11.3717 144.217 12.0038 145.808 12.0038ZM13.8081 87.0038C13.8081 88.5951 13.176 90.1212 12.0508 91.2465C10.9256 92.3717 9.39943 93.0038 7.80813 93.0038C6.21683 93.0038 4.69071 92.3717 3.56549 91.2465C2.44027 90.1212 1.80813 88.5951 1.80813 87.0038C1.80813 85.4125 2.44027 83.8864 3.56549 82.7612C4.69071 81.636 6.21683 81.0038 7.80813 81.0038C9.39943 81.0038 10.9256 81.636 12.0508 82.7612C13.176 83.8864 13.8081 85.4125 13.8081 87.0038V87.0038ZM214.196 131.404C215.492 131.405 216.753 130.986 217.792 130.211C218.83 129.435 219.589 128.344 219.955 127.101C220.322 125.858 220.276 124.53 219.825 123.315C219.374 122.1 218.542 121.064 217.453 120.362C216.364 119.659 215.077 119.328 213.784 119.418C212.491 119.508 211.262 120.014 210.281 120.861C209.3 121.707 208.619 122.849 208.341 124.114C208.062 125.38 208.201 126.702 208.736 127.882L208.91 128.242L209.168 128.686C209.714 129.521 210.46 130.207 211.338 130.682C212.216 131.157 213.198 131.405 214.196 131.404V131.404ZM73.8081 210.604C75.3994 210.604 76.9255 209.972 78.0508 208.846C79.176 207.721 79.8081 206.195 79.8081 204.604C79.8081 203.013 79.176 201.486 78.0508 200.361C76.9255 199.236 75.3994 198.604 73.8081 198.604C72.2168 198.604 70.6907 199.236 69.5655 200.361C68.4403 201.486 67.8081 203.013 67.8081 204.604C67.8081 206.195 68.4403 207.721 69.5655 208.846C70.6907 209.972 72.2168 210.604 73.8081 210.604V210.604ZM85.8081 22.2038C85.8081 23.7951 85.176 25.3212 84.0508 26.4465C82.9255 27.5717 81.3994 28.2038 79.8081 28.2038C78.2168 28.2038 76.6907 27.5717 75.5655 26.4465C74.4403 25.3212 73.8081 23.7951 73.8081 22.2038C73.8081 20.6125 74.4403 19.0864 75.5655 17.9612C76.6907 16.836 78.2168 16.2038 79.8081 16.2038C81.3994 16.2038 82.9255 16.836 84.0508 17.9612C85.176 19.0864 85.8081 20.6125 85.8081 22.2038Z" fill="#006AFF" fill-opacity="0.25"/>
</svg>
