<svg width="40" height="40" viewBox="0 0 40 40" fill="none" xmlns="http://www.w3.org/2000/svg">
<g clip-path="url(#clip0_43_1523)">
<path d="M20 22L19.7035 22.4025C19.7894 22.4658 19.8933 22.4999 20 22.4999C20.1067 22.4999 20.2106 22.4658 20.2965 22.4025L20 22ZM2 32C1.437 32 1 31.535 1 31H0C0 32.065 0.863 33 2 33V32ZM1 31V9H0V31H1ZM1 9C1 8.465 1.437 8 2 8V7C0.863 7 0 7.935 0 9H1ZM2 8H38V7H2V8ZM38 8C38.563 8 39 8.465 39 9H40C40 7.935 39.137 7 38 7V8ZM39 9V31H40V9H39ZM39 31C39 31.535 38.563 32 38 32V33C39.137 33 40 32.065 40 31H39ZM38 32H2V33H38V32ZM0.7035 8.4025L19.7035 22.4025L20.2965 21.5975L1.2965 7.5975L0.7035 8.4025V8.4025ZM20.2965 22.4025L39.2965 8.4025L38.7035 7.5975L19.7035 21.5975L20.2965 22.4025V22.4025ZM1.3 32.4L17.3 20.4L16.7 19.6L0.7 31.6L1.3 32.4V32.4ZM39.3 31.6L23.3 19.6L22.7 20.4L38.7 32.4L39.3 31.6Z" fill="white" stroke="white" stroke-width="2"/>
</g>
<defs>
<clipPath id="clip0_43_1523">
<rect width="40" height="40" fill="white"/>
</clipPath>
</defs>
</svg>
