<svg width="50" height="50" viewBox="0 0 50 50" fill="none" xmlns="http://www.w3.org/2000/svg">
<g clip-path="url(#clip0_43_1527)">
<path d="M34.375 27.0832C34.375 26.5079 33.9087 26.0415 33.3334 26.0415C32.7581 26.0415 32.2917 26.5079 32.2917 27.0832C32.2917 27.6585 32.7581 28.1248 33.3334 28.1248C33.9087 28.1248 34.375 27.6585 34.375 27.0832Z" fill="#C4C4C4" stroke="black"/>
<path d="M34.375 35.4167C34.375 34.8414 33.9087 34.375 33.3334 34.375C32.7581 34.375 32.2917 34.8414 32.2917 35.4167C32.2917 35.992 32.7581 36.4583 33.3334 36.4583C33.9087 36.4583 34.375 35.992 34.375 35.4167Z" fill="#C4C4C4" stroke="black"/>
<path d="M20.8334 10.4167V8.33333C20.2808 8.33333 19.7509 8.55283 19.3602 8.94353C18.9695 9.33423 18.75 9.86413 18.75 10.4167H20.8334ZM29.1667 10.4167H31.25C31.25 9.86413 31.0305 9.33423 30.6398 8.94353C30.2491 8.55283 29.7192 8.33333 29.1667 8.33333V10.4167ZM29.1667 18.75V20.8333C29.7192 20.8333 30.2491 20.6138 30.6398 20.2231C31.0305 19.8324 31.25 19.3025 31.25 18.75H29.1667ZM20.8334 18.75H18.75C18.75 19.3025 18.9695 19.8324 19.3602 20.2231C19.7509 20.6138 20.2808 20.8333 20.8334 20.8333V18.75ZM16.6667 25C16.1142 25 15.5842 25.2195 15.1935 25.6102C14.8028 26.0009 14.5834 26.5308 14.5834 27.0833C14.5834 27.6359 14.8028 28.1658 15.1935 28.5565C15.5842 28.9472 16.1142 29.1667 16.6667 29.1667V25ZM25 29.1667C25.5526 29.1667 26.0825 28.9472 26.4732 28.5565C26.8639 28.1658 27.0834 27.6359 27.0834 27.0833C27.0834 26.5308 26.8639 26.0009 26.4732 25.6102C26.0825 25.2195 25.5526 25 25 25V29.1667ZM16.6667 33.3333C16.1142 33.3333 15.5842 33.5528 15.1935 33.9435C14.8028 34.3342 14.5834 34.8641 14.5834 35.4167C14.5834 35.9692 14.8028 36.4991 15.1935 36.8898C15.5842 37.2805 16.1142 37.5 16.6667 37.5V33.3333ZM25 37.5C25.5526 37.5 26.0825 37.2805 26.4732 36.8898C26.8639 36.4991 27.0834 35.9692 27.0834 35.4167C27.0834 34.8641 26.8639 34.3342 26.4732 33.9435C26.0825 33.5528 25.5526 33.3333 25 33.3333V37.5ZM6.25002 2.08333V0C5.69749 0 5.16758 0.219493 4.77688 0.610194C4.38618 1.00089 4.16669 1.5308 4.16669 2.08333H6.25002ZM43.75 47.9167L42.9042 49.8208C43.2214 49.9618 43.5688 50.0212 43.9148 49.9937C44.2608 49.9663 44.5945 49.8528 44.8855 49.6636C45.1765 49.4744 45.4157 49.2156 45.5812 48.9105C45.7467 48.6054 45.8334 48.2638 45.8334 47.9167H43.75ZM6.25002 47.9167H4.16669C4.16664 48.2638 4.25332 48.6054 4.41886 48.9105C4.58439 49.2156 4.82352 49.4744 5.11454 49.6636C5.40556 49.8528 5.73923 49.9663 6.08524 49.9937C6.43126 50.0212 6.77865 49.9618 7.09585 49.8208L6.25002 47.9167ZM43.75 2.08333H45.8334C45.8334 1.5308 45.6139 1.00089 45.2232 0.610194C44.8325 0.219493 44.3026 0 43.75 0V2.08333ZM25 47.9167L24.1542 49.8208C24.4205 49.9391 24.7086 50.0003 25 50.0003C25.2914 50.0003 25.5796 49.9391 25.8459 49.8208L25 47.9167ZM10.9375 45.8333L11.7834 43.9292C11.5171 43.8109 11.2289 43.7497 10.9375 43.7497C10.6461 43.7497 10.358 43.8109 10.0917 43.9292L10.9375 45.8333ZM15.625 47.9167L14.7792 49.8208C15.0455 49.9391 15.3336 50.0003 15.625 50.0003C15.9164 50.0003 16.2046 49.9391 16.4709 49.8208L15.625 47.9167ZM20.3125 45.8333L21.1584 43.9292C20.8921 43.8109 20.6039 43.7497 20.3125 43.7497C20.0211 43.7497 19.733 43.8109 19.4667 43.9292L20.3125 45.8333ZM29.6875 45.8333L30.5334 43.9292C30.2671 43.8109 29.9789 43.7497 29.6875 43.7497C29.3961 43.7497 29.108 43.8109 28.8417 43.9292L29.6875 45.8333V45.8333ZM34.375 47.9167L33.5292 49.8208C33.7955 49.9391 34.0836 50.0003 34.375 50.0003C34.6664 50.0003 34.9546 49.9391 35.2209 49.8208L34.375 47.9167ZM39.0625 45.8333L39.9084 43.9292C39.6421 43.8109 39.3539 43.7497 39.0625 43.7497C38.7711 43.7497 38.483 43.8109 38.2167 43.9292L39.0625 45.8333V45.8333ZM20.8334 12.5H29.1667V8.33333H20.8334V12.5ZM27.0834 10.4167V18.75H31.25V10.4167H27.0834ZM29.1667 16.6667H20.8334V20.8333H29.1667V16.6667ZM22.9167 18.75V10.4167H18.75V18.75H22.9167ZM16.6667 29.1667H25V25H16.6667V29.1667ZM16.6667 37.5H25V33.3333H16.6667V37.5ZM8.33335 47.9167V2.08333H4.16669V47.9167H8.33335ZM10.0917 43.9292L5.40419 46.0125L7.09585 49.8208L11.7834 47.7375L10.0917 43.9292ZM16.4709 46.0125L11.7834 43.9292L10.0917 47.7375L14.7792 49.8208L16.4709 46.0125ZM25.8459 46.0125L21.1584 43.9292L19.4667 47.7375L24.1542 49.8208L25.8459 46.0125ZM19.4667 43.9292L14.7792 46.0125L16.4709 49.8208L21.1584 47.7375L19.4667 43.9292V43.9292ZM28.8417 43.9292L24.1542 46.0125L25.8459 49.8208L30.5334 47.7375L28.8417 43.9292ZM35.2209 46.0125L30.5334 43.9292L28.8417 47.7375L33.5292 49.8208L35.2209 46.0125ZM44.5959 46.0125L39.9084 43.9292L38.2167 47.7375L42.9042 49.8208L44.5959 46.0125ZM38.2167 43.9292L33.5292 46.0125L35.2209 49.8208L39.9084 47.7375L38.2167 43.9292ZM41.6667 2.08333V47.9167H45.8334V2.08333H41.6667ZM6.25002 4.16667H43.75V0H6.25002V4.16667Z" fill="black"/>
</g>
<defs>
<clipPath id="clip0_43_1527">
<rect width="50" height="50" fill="white"/>
</clipPath>
</defs>
</svg>
